<svg xmlns="http://www.w3.org/2000/svg" width="32" height="32" fill="none" viewBox="0 0 32 32">
  <path stroke="#fff" stroke-linecap="round" stroke-linejoin="round" stroke-width="4" d="M12.895 5.515a3.12 3.12 0 0 1 6.212 0 3.119 3.119 0 0 0 4.425 2.553 3.12 3.12 0 0 1 3.107 5.377 3.119 3.119 0 0 0 0 5.108 3.12 3.12 0 0 1-3.107 5.378 3.12 3.12 0 0 0-4.425 2.553 3.12 3.12 0 0 1-6.212 0 3.12 3.12 0 0 0-4.427-2.553 3.12 3.12 0 0 1-3.107-5.378 3.12 3.12 0 0 0 0-5.108 3.12 3.12 0 0 1 3.106-5.377 3.12 3.12 0 0 0 4.425-2.553"/>
  <path stroke="#fff" stroke-linecap="round" stroke-linejoin="round" stroke-width="4" d="M16 20a4 4 0 1 0 0-8 4 4 0 0 0 0 8Z"/>
</svg>
