<svg xmlns="http://www.w3.org/2000/svg" width="182" height="182" fill="none" viewBox="0 0 182 182">
  <path fill="#fff" d="M91 11.375A79.623 79.623 0 0 1 170.625 91a79.621 79.621 0 0 1-23.322 56.303 79.621 79.621 0 0 1-112.606 0 79.623 79.623 0 0 1 0-112.606A79.625 79.625 0 0 1 91 11.375Zm-9.918 95.337L63.398 89.009a6.83 6.83 0 0 0-9.669 9.651l22.537 22.555a6.799 6.799 0 0 0 4.825 2.006 6.799 6.799 0 0 0 4.825-2.006l46.638-46.655a6.836 6.836 0 0 0 2.07-4.847 6.82 6.82 0 0 0-4.236-6.364 6.825 6.825 0 0 0-7.485 1.56l-41.82 41.803Z"/>
</svg>
